{"title":"The Vampire Diaries S02E14 HDTV XviD-2HD {TheCloon}","uid":6167636,"size":367258200,"categoryP":"video","categoryS":"tv_shows","magnet":"?xt=urn:btih:e70a23bd9b9ca517a220e46f356eb250d3d54906&amp;dn=The+Vampire+Diaries+S02E14+HDTV+XviD-2HD+%7BTheCloon%7D&amp;tr=udp%3A%2F%2Ftracker.openbittorrent.com%3A80&amp;tr=udp%3A%2F%2Fopen.demonii.com%3A1337&amp;tr=udp%3A%2F%2Ftracker.coppersurfer.tk%3A6969&amp;tr=udp%3A%2F%2Fexodus.desync.com%3A6969","seeders":1,"leechers":0,"uploader":"TheCloon","files":4,"time":1297442807,"description":"###\n\nThe Vampire Diaries S02E14 HDTV XviD-2HD\n\n###\n &lt;a href=&quot;\nhttp://www.tvrage.com/The_Vampire_Diaries&quot; rel=&quot;nofollow&quot; target=&quot;_NEW&quot;&gt;\nhttp://www.tvrage.com/The_Vampire_Diaries&lt;/a&gt;\n\n###\n\nStefan and Elena get away for what they hope will be a romantic weekend at the Gilbert family lake house, not realizing that they've been followed. Jenna starts to worry that Alaric isn't being honest with her. Jules explains the importance of the sun and moon curse to Tyler, but leaves out an important detail. Damon attends a tea at the Historical Society in order to talk to Elijah, but Elijah isn't giving up any secrets. With help from Caroline and Jeremy, Bonnie uses deceptive measures to get shocking new information out of Luka. Finally, Tyler offers Matt some relationship advice. \n\n###\n\n[CODE]\nFormat                           : AVI\nFormat/Info                      : Audio Video Interleave\nFile size                        : 350 MiB\nDuration                         : 41mn 19s\nOverall bit rate                 : 1 185 Kbps\nWriting application              : MEncoder SVN-r32669-4.3.2\nWriting library                  : MPlayer\n\nVideo\nID                               : 0\nFormat                           : MPEG-4 Visual\nFormat profile                   : Advanced Simple@L5\nFormat settings, BVOP            : 1\nFormat settings, QPel            : No\nFormat settings, GMC             : No warppoints\nFormat settings, Matrix          : Default (H.263)\nCodec ID                         : XVID\nCodec ID/Hint                    : XviD\nDuration                         : 41mn 19s\nBit rate                         : 1 045 Kbps\nWidth                            : 624 pixels\nHeight                           : 352 pixels\nDisplay aspect ratio             : 16:9\nFrame rate                       : 23.976 fps\nColor space                      : YUV\nChroma subsampling               : 4:2:0\nBit depth                        : 8 bits\nScan type                        : Progressive\nCompression mode                 : Lossy\nBits/(Pixel*Frame)               : 0.198\nStream size                      : 309 MiB (88%)\nWriting library                  : XviD 1.2.1 (UTC 2008-12-04)\n\nAudio\nID                               : 1\nFormat                           : MPEG Audio\nFormat version                   : Version 1\nFormat profile                   : Layer 3\nMode                             : Joint stereo\nMode extension                   : MS Stereo\nCodec ID                         : 55\nCodec ID/Hint                    : MP3\nDuration                         : 41mn 19s\nBit rate mode                    : Variable\nBit rate                         : 128 Kbps\nChannel(s)                       : 2 channels\nSampling rate                    : 48.0 KHz\nCompression mode                 : Lossy\nStream size                      : 37.6 MiB (11%)\nAlignment                        : Aligned on interleaves\nInterleave, duration             : 24 ms (0.58 video frame)\nInterleave, preload duration     : 516 ms\n[/CODE]\n","torrent":{"xt":"urn:btih:e70a23bd9b9ca517a220e46f356eb250d3d54906","amp;dn":"The+Vampire+Diaries+S02E14+HDTV+XviD-2HD+%7BTheCloon%7D","amp;tr":["udp%3A%2F%2Ftracker.openbittorrent.com%3A80","udp%3A%2F%2Fopen.demonii.com%3A1337","udp%3A%2F%2Ftracker.coppersurfer.tk%3A6969","udp%3A%2F%2Fexodus.desync.com%3A6969"],"infoHash":"e70a23bd9b9ca517a220e46f356eb250d3d54906","infoHashBuffer":{"type":"Buffer","data":[231,10,35,189,155,156,165,23,162,32,228,111,53,110,178,80,211,213,73,6]},"announce":[],"urlList":[]}}